<svg width="526" height="96" viewBox="0 0 526 96" fill="none" xmlns="http://www.w3.org/2000/svg">
<path d="M38.52 31.024V1.84H63.48V31.024H38.52ZM25.72 94H0.76V1.84H25.72V37.296H63.48V57.648H25.72V94ZM63.48 64.176V94H38.52V64.176H63.48Z" fill="#F54703"/>
<path d="M95.746 0.815994H122.754L144.13 94H117.634L116.226 87.984H104.322L107.778 68.144H111.618L95.746 0.815994ZM96.642 94H69.89L91.138 9.392L103.042 59.312L96.642 94ZM170.315 45.232H143.435C143.691 33.968 145.27 25.136 148.171 18.736C151.158 12.2507 155.424 7.64266 160.971 4.91199C166.518 2.18133 173.387 0.815994 181.579 0.815994C184.31 0.815994 187.424 0.986661 190.923 1.328C194.507 1.584 197.963 2.096 201.291 2.864V36.656H185.803L183.755 21.168C181.622 21.168 179.702 21.424 177.995 21.936C176.374 22.448 175.008 23.5147 173.899 25.136C172.79 26.672 171.936 29.0613 171.339 32.304C170.742 35.5467 170.4 39.856 170.315 45.232ZM143.435 51.632H170.315C170.742 60.336 172.576 66.352 175.819 69.68C179.062 72.9227 183.926 74.544 190.411 74.544C192.459 74.544 194.422 74.416 196.299 74.16C198.176 73.904 200.182 73.6053 202.315 73.264V93.488C199.84 94.0853 196.854 94.512 193.355 94.768C189.856 95.1093 186.742 95.28 184.011 95.28C169.931 95.28 159.734 91.6107 153.419 84.272C147.19 76.9333 143.862 66.0533 143.435 51.632ZM236.22 18.736L211.26 77.36V1.84H236.22V18.736ZM236.732 94H211.26L249.916 1.84H275.516L236.732 94ZM246.716 86.704L261.308 52.528L275.9 94H249.02L246.716 86.704ZM278.53 22.32V1.84H343.042L339.202 22.32H278.53ZM297.218 28.72H322.306V94H297.218V28.72ZM382.025 47.408V45.744C385.438 44.1227 387.145 40.0693 387.145 33.584C387.145 29.6587 386.804 26.7573 386.121 24.88C385.438 22.9173 384.244 21.5947 382.537 20.912C380.916 20.2293 378.612 19.888 375.625 19.888H350.665L343.625 1.84H379.977C387.486 1.84 393.758 2.82133 398.793 4.784C403.828 6.66133 407.582 9.86133 410.057 14.384C412.617 18.8213 413.897 24.9227 413.897 32.688C413.897 41.648 411.934 48.5173 408.009 53.296L417.609 94H392.009L382.025 47.408ZM375.625 94H350.665V26.288H375.625V94ZM424.01 1.84H448.97V94H424.01V1.84ZM509.534 47.536L496.094 18.864L501.47 1.84H525.79L509.534 47.536ZM456.542 1.84H481.374L524.51 94H500.19L456.542 1.84ZM472.926 50.992L486.11 78.384L480.094 94H455.902L472.926 50.992Z" fill="black"/>
</svg>
